<?xml version="1.0" encoding="utf-8"?>
<!-- Generator: Adobe Illustrator 22.1.0, SVG Export Plug-In . SVG Version: 6.00 Build 0)  -->
<svg version="1.1" id="Layer_1" xmlns="http://www.w3.org/2000/svg" xmlns:xlink="http://www.w3.org/1999/xlink" x="0px" y="0px"
	 viewBox="0 0 1366 768" style="enable-background:new 0 0 1366 768;" xml:space="preserve">
<style type="text/css">
	.st0{fill:#F2EDD8;}
	.st1{fill:#605553;}
	.st2{fill:#E2E2E2;}
	.st3{fill:#FFFFFF;}
	.st4{fill:#4285F4;}
	.st5{font-family:'Pixelated';}
	.st6{font-size:26.7799px;}
</style>
<g>
	<path class="st0" d="M747,376.6h-65.4c-1.3,0-2.4-1.1-2.4-2.4V329c0-1.3,1.1-2.4,2.4-2.4H747c1.3,0,2.4,1.1,2.4,2.4v45.3
		C749.4,375.5,748.3,376.6,747,376.6z"/>
	<g>
		<path class="st1" d="M741.3,371.5c-18,0.8-35.9,0.8-53.9,0c-1.4-0.1-2.7-1.4-2.9-2.9c-1-11.4-1-22.5,0-34c0.2-1.5,1.5-2.8,2.9-2.9
			c18-0.8,35.9-0.8,53.9,0c1.4,0.1,2.7,1.4,2.9,2.9c1,11.4,1,22.5,0,34C744,370.1,742.7,371.4,741.3,371.5z"/>
	</g>
	<g>
		<path class="st0" d="M755.7,404.3H673c-0.7,0-1.2-0.6-1.2-1.2v-24.1c0-0.7,0.6-1.2,1.2-1.2h82.7c0.7,0,1.2,0.6,1.2,1.2v24.1
			C756.9,403.7,756.4,404.3,755.7,404.3z"/>
		<g>
			<rect x="677.4" y="380.1" class="st1" width="8" height="6.7"/>
			<g>
				<rect x="675.5" y="388.5" class="st1" width="14.1" height="1.7"/>
				<rect x="675.5" y="392.4" class="st1" width="14.1" height="1.7"/>
				<rect x="675.5" y="396.3" class="st1" width="14.1" height="1.7"/>
				<rect x="675.5" y="400.2" class="st1" width="14.1" height="1.7"/>
			</g>
			<g>
				<rect x="692.4" y="380.1" class="st1" width="1.3" height="21.8"/>
				<rect x="696.6" y="380.1" class="st1" width="1.3" height="21.8"/>
				<rect x="700.8" y="380.1" class="st1" width="1.3" height="21.8"/>
				<rect x="705" y="380.1" class="st1" width="1.3" height="21.8"/>
			</g>
			<g>
				<rect x="708.8" y="380.1" class="st1" width="44.4" height="21.8"/>
				<g>
					<rect x="711.5" y="382.1" class="st0" width="39" height="0.8"/>
					<rect x="711.5" y="384" class="st0" width="39" height="0.8"/>
					<rect x="711.5" y="385.9" class="st0" width="39" height="0.8"/>
					<rect x="711.5" y="387.8" class="st0" width="39" height="0.8"/>
					<rect x="711.5" y="389.6" class="st0" width="39" height="0.8"/>
					<rect x="711.5" y="391.5" class="st0" width="39" height="0.8"/>
					<rect x="711.5" y="393.4" class="st0" width="39" height="0.8"/>
					<rect x="711.5" y="395.3" class="st0" width="39" height="0.8"/>
					<rect x="711.5" y="397.2" class="st0" width="39" height="0.8"/>
					<rect x="711.5" y="399.1" class="st0" width="39" height="0.8"/>
				</g>
			</g>
		</g>
	</g>
	<g>
		<g>
			<g>
				<path class="st0" d="M736.4,407.3c-0.2-0.7-0.9-1.2-1.6-1.2l-27.4-0.1l0,0l-2.7,0l-2.7,0l0,0l-27.4,0.1c-0.7,0-1.4,0.5-1.6,1.2
					l-4.5,14.7c-0.3,1.1,0.5,2.2,1.6,2.2h31.6h5.9h31.6c1.1,0,1.9-1.1,1.6-2.2L736.4,407.3z"/>
				<path class="st1" d="M735.3,408.1c-0.2-0.6-0.8-1.1-1.6-1.1l-26.5-0.1l0,0l-2.6,0l-2.6,0l0,0l-26.5,0.1c-0.7,0-1.3,0.4-1.6,1.1
					l-4.4,13.2c-0.3,1,0.5,2,1.6,2h30.6h5.7h30.6c1.1,0,1.9-1,1.6-2L735.3,408.1z"/>
			</g>
			<g>
				<g>
					<g>
						<path class="st2" d="M679.3,421.9h-2.4c-0.2,0-0.4-0.2-0.4-0.4v-1.8c0-0.2,0.2-0.4,0.4-0.4h2.4c0.2,0,0.4,0.2,0.4,0.4v1.8
							C679.7,421.7,679.5,421.9,679.3,421.9z"/>
					</g>
					<path class="st3" d="M679.3,419.3h-2.3c-0.3,0-0.5,0.2-0.5,0.4v1.1c0.4,0.2,1,0.4,1.6,0.4c0.6,0,1.2-0.1,1.6-0.4v-1.1
						C679.7,419.4,679.5,419.3,679.3,419.3z"/>
				</g>
				<g>
					<g>
						<path class="st2" d="M683.7,421.9h-2.4c-0.2,0-0.4-0.2-0.4-0.4v-1.8c0-0.2,0.2-0.4,0.4-0.4h2.4c0.2,0,0.4,0.2,0.4,0.4v1.8
							C684.2,421.7,684,421.9,683.7,421.9z"/>
					</g>
					<path class="st3" d="M683.7,419.3h-2.3c-0.3,0-0.5,0.2-0.5,0.4v1.1c0.4,0.2,1,0.4,1.6,0.4c0.6,0,1.2-0.1,1.6-0.4v-1.1
						C684.2,419.4,683.9,419.3,683.7,419.3z"/>
				</g>
				<g>
					<g>
						<path class="st2" d="M674.9,421.9h-2.4c-0.2,0-0.4-0.2-0.4-0.4v-1.8c0-0.2,0.2-0.4,0.4-0.4h2.4c0.2,0,0.4,0.2,0.4,0.4v1.8
							C675.3,421.7,675.1,421.9,674.9,421.9z"/>
					</g>
					<path class="st3" d="M674.8,419.3h-2.3c-0.3,0-0.5,0.2-0.5,0.4v1.1c0.4,0.2,1,0.4,1.6,0.4c0.6,0,1.2-0.1,1.6-0.4v-1.1
						C675.3,419.4,675.1,419.3,674.8,419.3z"/>
				</g>
				<g>
					<g>
						<path class="st2" d="M688.2,421.9h-2.4c-0.2,0-0.4-0.2-0.4-0.4v-1.8c0-0.2,0.2-0.4,0.4-0.4h2.4c0.2,0,0.4,0.2,0.4,0.4v1.8
							C688.6,421.7,688.4,421.9,688.2,421.9z"/>
					</g>
					<path class="st3" d="M688.1,419.3h-2.3c-0.3,0-0.5,0.2-0.5,0.4v1.1c0.4,0.2,1,0.4,1.6,0.4c0.6,0,1.2-0.1,1.6-0.4v-1.1
						C688.6,419.4,688.4,419.3,688.1,419.3z"/>
				</g>
				<g>
					<g>
						<path class="st2" d="M692.6,421.9h-2.4c-0.2,0-0.4-0.2-0.4-0.4v-1.8c0-0.2,0.2-0.4,0.4-0.4h2.4c0.2,0,0.4,0.2,0.4,0.4v1.8
							C693,421.7,692.8,421.9,692.6,421.9z"/>
					</g>
					<path class="st3" d="M692.6,419.3h-2.3c-0.3,0-0.5,0.2-0.5,0.4v1.1c0.4,0.2,1,0.4,1.6,0.4s1.2-0.1,1.6-0.4v-1.1
						C693,419.4,692.8,419.3,692.6,419.3z"/>
				</g>
				<g>
					<g>
						<path class="st2" d="M697,421.9h-2.4c-0.2,0-0.4-0.2-0.4-0.4v-1.8c0-0.2,0.2-0.4,0.4-0.4h2.4c0.2,0,0.4,0.2,0.4,0.4v1.8
							C697.5,421.7,697.3,421.9,697,421.9z"/>
					</g>
					<path class="st3" d="M697,419.3h-2.3c-0.3,0-0.5,0.2-0.5,0.4v1.1c0.4,0.2,1,0.4,1.6,0.4c0.6,0,1.2-0.1,1.6-0.4v-1.1
						C697.5,419.4,697.3,419.3,697,419.3z"/>
				</g>
				<g>
					<g>
						<path class="st2" d="M701.5,421.9h-2.4c-0.2,0-0.4-0.2-0.4-0.4v-1.8c0-0.2,0.2-0.4,0.4-0.4h2.4c0.2,0,0.4,0.2,0.4,0.4v1.8
							C701.9,421.7,701.7,421.9,701.5,421.9z"/>
					</g>
					<path class="st3" d="M701.4,419.3h-2.3c-0.3,0-0.5,0.2-0.5,0.4v1.1c0.4,0.2,1,0.4,1.6,0.4c0.6,0,1.2-0.1,1.6-0.4v-1.1
						C701.9,419.4,701.7,419.3,701.4,419.3z"/>
				</g>
				<g>
					<g>
						<path class="st2" d="M705.9,421.9h-2.4c-0.2,0-0.4-0.2-0.4-0.4v-1.8c0-0.2,0.2-0.4,0.4-0.4h2.4c0.2,0,0.4,0.2,0.4,0.4v1.8
							C706.3,421.7,706.1,421.9,705.9,421.9z"/>
					</g>
					<path class="st3" d="M705.9,419.3h-2.3c-0.3,0-0.5,0.2-0.5,0.4v1.1c0.4,0.2,1,0.4,1.6,0.4c0.6,0,1.2-0.1,1.6-0.4v-1.1
						C706.3,419.4,706.1,419.3,705.9,419.3z"/>
				</g>
				<g>
					<g>
						<path class="st2" d="M710.4,421.9H708c-0.2,0-0.4-0.2-0.4-0.4v-1.8c0-0.2,0.2-0.4,0.4-0.4h2.4c0.2,0,0.4,0.2,0.4,0.4v1.8
							C710.8,421.7,710.6,421.9,710.4,421.9z"/>
					</g>
					<path class="st3" d="M710.3,419.3H708c-0.3,0-0.5,0.2-0.5,0.4v1.1c0.4,0.2,1,0.4,1.6,0.4c0.6,0,1.2-0.1,1.6-0.4v-1.1
						C710.8,419.4,710.6,419.3,710.3,419.3z"/>
				</g>
				<g>
					<g>
						<path class="st2" d="M714.8,421.9h-2.4c-0.2,0-0.4-0.2-0.4-0.4v-1.8c0-0.2,0.2-0.4,0.4-0.4h2.4c0.2,0,0.4,0.2,0.4,0.4v1.8
							C715.2,421.7,715,421.9,714.8,421.9z"/>
					</g>
					<path class="st3" d="M714.7,419.3h-2.3c-0.3,0-0.5,0.2-0.5,0.4v1.1c0.4,0.2,1,0.4,1.6,0.4c0.6,0,1.2-0.1,1.6-0.4v-1.1
						C715.2,419.4,715,419.3,714.7,419.3z"/>
				</g>
				<g>
					<g>
						<path class="st2" d="M719.2,421.9h-2.4c-0.2,0-0.4-0.2-0.4-0.4v-1.8c0-0.2,0.2-0.4,0.4-0.4h2.4c0.2,0,0.4,0.2,0.4,0.4v1.8
							C719.6,421.7,719.5,421.9,719.2,421.9z"/>
					</g>
					<path class="st3" d="M719.2,419.3h-2.3c-0.3,0-0.5,0.2-0.5,0.4v1.1c0.4,0.2,1,0.4,1.6,0.4s1.2-0.1,1.6-0.4v-1.1
						C719.6,419.4,719.4,419.3,719.2,419.3z"/>
				</g>
				<g>
					<g>
						<path class="st2" d="M723.7,421.9h-2.4c-0.2,0-0.4-0.2-0.4-0.4v-1.8c0-0.2,0.2-0.4,0.4-0.4h2.4c0.2,0,0.4,0.2,0.4,0.4v1.8
							C724.1,421.7,723.9,421.9,723.7,421.9z"/>
					</g>
					<path class="st3" d="M723.6,419.3h-2.3c-0.3,0-0.5,0.2-0.5,0.4v1.1c0.4,0.2,1,0.4,1.6,0.4c0.6,0,1.2-0.1,1.6-0.4v-1.1
						C724.1,419.4,723.9,419.3,723.6,419.3z"/>
				</g>
				<g>
					<g>
						<path class="st2" d="M728.1,421.9h-2.4c-0.2,0-0.4-0.2-0.4-0.4v-1.8c0-0.2,0.2-0.4,0.4-0.4h2.4c0.2,0,0.4,0.2,0.4,0.4v1.8
							C728.5,421.7,728.3,421.9,728.1,421.9z"/>
					</g>
					<path class="st3" d="M728.1,419.3h-2.3c-0.3,0-0.5,0.2-0.5,0.4v1.1c0.4,0.2,1,0.4,1.6,0.4c0.6,0,1.2-0.1,1.6-0.4v-1.1
						C728.5,419.4,728.3,419.3,728.1,419.3z"/>
				</g>
				<g>
					<g>
						<path class="st2" d="M732.5,421.9h-2.4c-0.2,0-0.4-0.2-0.4-0.4v-1.8c0-0.2,0.2-0.4,0.4-0.4h2.4c0.2,0,0.4,0.2,0.4,0.4v1.8
							C732.9,421.7,732.8,421.9,732.5,421.9z"/>
					</g>
					<path class="st3" d="M732.5,419.3h-2.3c-0.3,0-0.5,0.2-0.5,0.4v1.1c0.4,0.2,1,0.4,1.6,0.4c0.6,0,1.2-0.1,1.6-0.4v-1.1
						C732.9,419.4,732.7,419.3,732.5,419.3z"/>
				</g>
				<g>
					<g>
						<path class="st2" d="M737,421.9h-2.4c-0.2,0-0.4-0.2-0.4-0.4v-1.8c0-0.2,0.2-0.4,0.4-0.4h2.4c0.2,0,0.4,0.2,0.4,0.4v1.8
							C737.4,421.7,737.2,421.9,737,421.9z"/>
					</g>
					<path class="st3" d="M736.9,419.3h-2.3c-0.3,0-0.5,0.2-0.5,0.4v1.1c0.4,0.2,1,0.4,1.6,0.4c0.6,0,1.2-0.1,1.6-0.4v-1.1
						C737.4,419.4,737.2,419.3,736.9,419.3z"/>
				</g>
			</g>
			<g>
				<g>
					<g>
						<path class="st2" d="M677.1,418.2h-2.4c-0.2,0-0.4-0.2-0.4-0.4V416c0-0.2,0.2-0.4,0.4-0.4h2.4c0.2,0,0.4,0.2,0.4,0.4v1.8
							C677.5,418,677.3,418.2,677.1,418.2z"/>
					</g>
					<path class="st3" d="M677,415.5h-2.3c-0.3,0-0.5,0.2-0.5,0.4v1.1c0.4,0.2,1,0.4,1.6,0.4c0.6,0,1.2-0.1,1.6-0.4v-1.1
						C677.5,415.7,677.3,415.5,677,415.5z"/>
				</g>
				<g>
					<g>
						<path class="st2" d="M681.5,418.2h-2.4c-0.2,0-0.4-0.2-0.4-0.4V416c0-0.2,0.2-0.4,0.4-0.4h2.4c0.2,0,0.4,0.2,0.4,0.4v1.8
							C681.9,418,681.7,418.2,681.5,418.2z"/>
					</g>
					<path class="st3" d="M681.5,415.5h-2.3c-0.3,0-0.5,0.2-0.5,0.4v1.1c0.4,0.2,1,0.4,1.6,0.4c0.6,0,1.2-0.1,1.6-0.4v-1.1
						C681.9,415.7,681.7,415.5,681.5,415.5z"/>
				</g>
				<g>
					<g>
						<path class="st2" d="M686,418.2h-2.4c-0.2,0-0.4-0.2-0.4-0.4V416c0-0.2,0.2-0.4,0.4-0.4h2.4c0.2,0,0.4,0.2,0.4,0.4v1.8
							C686.4,418,686.2,418.2,686,418.2z"/>
					</g>
					<path class="st3" d="M685.9,415.5h-2.3c-0.3,0-0.5,0.2-0.5,0.4v1.1c0.4,0.2,1,0.4,1.6,0.4c0.6,0,1.2-0.1,1.6-0.4v-1.1
						C686.4,415.7,686.2,415.5,685.9,415.5z"/>
				</g>
				<g>
					<g>
						<path class="st2" d="M690.4,418.2H688c-0.2,0-0.4-0.2-0.4-0.4V416c0-0.2,0.2-0.4,0.4-0.4h2.4c0.2,0,0.4,0.2,0.4,0.4v1.8
							C690.8,418,690.6,418.2,690.4,418.2z"/>
					</g>
					<path class="st3" d="M690.3,415.5H688c-0.3,0-0.5,0.2-0.5,0.4v1.1c0.4,0.2,1,0.4,1.6,0.4c0.6,0,1.2-0.1,1.6-0.4v-1.1
						C690.8,415.7,690.6,415.5,690.3,415.5z"/>
				</g>
				<g>
					<g>
						<path class="st2" d="M694.8,418.2h-2.4c-0.2,0-0.4-0.2-0.4-0.4V416c0-0.2,0.2-0.4,0.4-0.4h2.4c0.2,0,0.4,0.2,0.4,0.4v1.8
							C695.2,418,695.1,418.2,694.8,418.2z"/>
					</g>
					<path class="st3" d="M694.8,415.5h-2.3c-0.3,0-0.5,0.2-0.5,0.4v1.1c0.4,0.2,1,0.4,1.6,0.4c0.6,0,1.2-0.1,1.6-0.4v-1.1
						C695.2,415.7,695,415.5,694.8,415.5z"/>
				</g>
				<g>
					<g>
						<path class="st2" d="M699.3,418.2h-2.4c-0.2,0-0.4-0.2-0.4-0.4V416c0-0.2,0.2-0.4,0.4-0.4h2.4c0.2,0,0.4,0.2,0.4,0.4v1.8
							C699.7,418,699.5,418.2,699.3,418.2z"/>
					</g>
					<path class="st3" d="M699.2,415.5h-2.3c-0.3,0-0.5,0.2-0.5,0.4v1.1c0.4,0.2,1,0.4,1.6,0.4c0.6,0,1.2-0.1,1.6-0.4v-1.1
						C699.7,415.7,699.5,415.5,699.2,415.5z"/>
				</g>
				<g>
					<g>
						<path class="st2" d="M703.7,418.2h-2.4c-0.2,0-0.4-0.2-0.4-0.4V416c0-0.2,0.2-0.4,0.4-0.4h2.4c0.2,0,0.4,0.2,0.4,0.4v1.8
							C704.1,418,703.9,418.2,703.7,418.2z"/>
					</g>
					<path class="st3" d="M703.7,415.5h-2.3c-0.3,0-0.5,0.2-0.5,0.4v1.1c0.4,0.2,1,0.4,1.6,0.4c0.6,0,1.2-0.1,1.6-0.4v-1.1
						C704.1,415.7,703.9,415.5,703.7,415.5z"/>
				</g>
				<g>
					<g>
						<path class="st2" d="M708.1,418.2h-2.4c-0.2,0-0.4-0.2-0.4-0.4V416c0-0.2,0.2-0.4,0.4-0.4h2.4c0.2,0,0.4,0.2,0.4,0.4v1.8
							C708.6,418,708.4,418.2,708.1,418.2z"/>
					</g>
					<path class="st3" d="M708.1,415.5h-2.3c-0.3,0-0.5,0.2-0.5,0.4v1.1c0.4,0.2,1,0.4,1.6,0.4c0.6,0,1.2-0.1,1.6-0.4v-1.1
						C708.6,415.7,708.3,415.5,708.1,415.5z"/>
				</g>
				<g>
					<g>
						<path class="st2" d="M712.6,418.2h-2.4c-0.2,0-0.4-0.2-0.4-0.4V416c0-0.2,0.2-0.4,0.4-0.4h2.4c0.2,0,0.4,0.2,0.4,0.4v1.8
							C713,418,712.8,418.2,712.6,418.2z"/>
					</g>
					<path class="st3" d="M712.5,415.5h-2.3c-0.3,0-0.5,0.2-0.5,0.4v1.1c0.4,0.2,1,0.4,1.6,0.4c0.6,0,1.2-0.1,1.6-0.4v-1.1
						C713,415.7,712.8,415.5,712.5,415.5z"/>
				</g>
				<g>
					<g>
						<path class="st2" d="M717,418.2h-2.4c-0.2,0-0.4-0.2-0.4-0.4V416c0-0.2,0.2-0.4,0.4-0.4h2.4c0.2,0,0.4,0.2,0.4,0.4v1.8
							C717.4,418,717.2,418.2,717,418.2z"/>
					</g>
					<path class="st3" d="M717,415.5h-2.3c-0.3,0-0.5,0.2-0.5,0.4v1.1c0.4,0.2,1,0.4,1.6,0.4s1.2-0.1,1.6-0.4v-1.1
						C717.4,415.7,717.2,415.5,717,415.5z"/>
				</g>
				<g>
					<g>
						<path class="st2" d="M721.4,418.2H719c-0.2,0-0.4-0.2-0.4-0.4V416c0-0.2,0.2-0.4,0.4-0.4h2.4c0.2,0,0.4,0.2,0.4,0.4v1.8
							C721.9,418,721.7,418.2,721.4,418.2z"/>
					</g>
					<path class="st3" d="M721.4,415.5h-2.3c-0.3,0-0.5,0.2-0.5,0.4v1.1c0.4,0.2,1,0.4,1.6,0.4c0.6,0,1.2-0.1,1.6-0.4v-1.1
						C721.9,415.7,721.7,415.5,721.4,415.5z"/>
				</g>
				<g>
					<g>
						<path class="st2" d="M725.9,418.2h-2.4c-0.2,0-0.4-0.2-0.4-0.4V416c0-0.2,0.2-0.4,0.4-0.4h2.4c0.2,0,0.4,0.2,0.4,0.4v1.8
							C726.3,418,726.1,418.2,725.9,418.2z"/>
					</g>
					<path class="st3" d="M725.8,415.5h-2.3c-0.3,0-0.5,0.2-0.5,0.4v1.1c0.4,0.2,1,0.4,1.6,0.4c0.6,0,1.2-0.1,1.6-0.4v-1.1
						C726.3,415.7,726.1,415.5,725.8,415.5z"/>
				</g>
				<g>
					<g>
						<path class="st2" d="M730.3,418.2h-2.4c-0.2,0-0.4-0.2-0.4-0.4V416c0-0.2,0.2-0.4,0.4-0.4h2.4c0.2,0,0.4,0.2,0.4,0.4v1.8
							C730.7,418,730.5,418.2,730.3,418.2z"/>
					</g>
					<path class="st3" d="M730.3,415.5H728c-0.3,0-0.5,0.2-0.5,0.4v1.1c0.4,0.2,1,0.4,1.6,0.4c0.6,0,1.2-0.1,1.6-0.4v-1.1
						C730.7,415.7,730.5,415.5,730.3,415.5z"/>
				</g>
				<g>
					<g>
						<path class="st2" d="M734.7,418.2h-2.4c-0.2,0-0.4-0.2-0.4-0.4V416c0-0.2,0.2-0.4,0.4-0.4h2.4c0.2,0,0.4,0.2,0.4,0.4v1.8
							C735.2,418,735,418.2,734.7,418.2z"/>
					</g>
					<path class="st3" d="M734.7,415.5h-2.3c-0.3,0-0.5,0.2-0.5,0.4v1.1c0.4,0.2,1,0.4,1.6,0.4c0.6,0,1.2-0.1,1.6-0.4v-1.1
						C735.2,415.7,735,415.5,734.7,415.5z"/>
				</g>
			</g>
			<g>
				<g>
					<g>
						<path class="st2" d="M679.3,414.5h-2.4c-0.2,0-0.4-0.2-0.4-0.4v-1.8c0-0.2,0.2-0.4,0.4-0.4h2.4c0.2,0,0.4,0.2,0.4,0.4v1.8
							C679.7,414.3,679.5,414.5,679.3,414.5z"/>
					</g>
					<path class="st3" d="M679.3,411.8h-2.3c-0.3,0-0.5,0.2-0.5,0.4v1.1c0.4,0.2,1,0.4,1.6,0.4c0.6,0,1.2-0.1,1.6-0.4v-1.1
						C679.7,412,679.5,411.8,679.3,411.8z"/>
				</g>
				<g>
					<g>
						<path class="st2" d="M683.7,414.5h-2.4c-0.2,0-0.4-0.2-0.4-0.4v-1.8c0-0.2,0.2-0.4,0.4-0.4h2.4c0.2,0,0.4,0.2,0.4,0.4v1.8
							C684.2,414.3,684,414.5,683.7,414.5z"/>
					</g>
					<path class="st3" d="M683.7,411.8h-2.3c-0.3,0-0.5,0.2-0.5,0.4v1.1c0.4,0.2,1,0.4,1.6,0.4c0.6,0,1.2-0.1,1.6-0.4v-1.1
						C684.2,412,683.9,411.8,683.7,411.8z"/>
				</g>
				<g>
					<g>
						<path class="st2" d="M688.2,414.5h-2.4c-0.2,0-0.4-0.2-0.4-0.4v-1.8c0-0.2,0.2-0.4,0.4-0.4h2.4c0.2,0,0.4,0.2,0.4,0.4v1.8
							C688.6,414.3,688.4,414.5,688.2,414.5z"/>
					</g>
					<path class="st3" d="M688.1,411.8h-2.3c-0.3,0-0.5,0.2-0.5,0.4v1.1c0.4,0.2,1,0.4,1.6,0.4c0.6,0,1.2-0.1,1.6-0.4v-1.1
						C688.6,412,688.4,411.8,688.1,411.8z"/>
				</g>
				<g>
					<g>
						<path class="st2" d="M692.6,414.5h-2.4c-0.2,0-0.4-0.2-0.4-0.4v-1.8c0-0.2,0.2-0.4,0.4-0.4h2.4c0.2,0,0.4,0.2,0.4,0.4v1.8
							C693,414.3,692.8,414.5,692.6,414.5z"/>
					</g>
					<path class="st3" d="M692.6,411.8h-2.3c-0.3,0-0.5,0.2-0.5,0.4v1.1c0.4,0.2,1,0.4,1.6,0.4c0.6,0,1.2-0.1,1.6-0.4v-1.1
						C693,412,692.8,411.8,692.6,411.8z"/>
				</g>
				<g>
					<g>
						<path class="st2" d="M697,414.5h-2.4c-0.2,0-0.4-0.2-0.4-0.4v-1.8c0-0.2,0.2-0.4,0.4-0.4h2.4c0.2,0,0.4,0.2,0.4,0.4v1.8
							C697.5,414.3,697.3,414.5,697,414.5z"/>
					</g>
					<path class="st3" d="M697,411.8h-2.3c-0.3,0-0.5,0.2-0.5,0.4v1.1c0.4,0.2,1,0.4,1.6,0.4c0.6,0,1.2-0.1,1.6-0.4v-1.1
						C697.5,412,697.3,411.8,697,411.8z"/>
				</g>
				<g>
					<g>
						<path class="st2" d="M701.5,414.5h-2.4c-0.2,0-0.4-0.2-0.4-0.4v-1.8c0-0.2,0.2-0.4,0.4-0.4h2.4c0.2,0,0.4,0.2,0.4,0.4v1.8
							C701.9,414.3,701.7,414.5,701.5,414.5z"/>
					</g>
					<path class="st3" d="M701.4,411.8h-2.3c-0.3,0-0.5,0.2-0.5,0.4v1.1c0.4,0.2,1,0.4,1.6,0.4c0.6,0,1.2-0.1,1.6-0.4v-1.1
						C701.9,412,701.7,411.8,701.4,411.8z"/>
				</g>
				<g>
					<g>
						<path class="st2" d="M705.9,414.5h-2.4c-0.2,0-0.4-0.2-0.4-0.4v-1.8c0-0.2,0.2-0.4,0.4-0.4h2.4c0.2,0,0.4,0.2,0.4,0.4v1.8
							C706.3,414.3,706.1,414.5,705.9,414.5z"/>
					</g>
					<path class="st3" d="M705.9,411.8h-2.3c-0.3,0-0.5,0.2-0.5,0.4v1.1c0.4,0.2,1,0.4,1.6,0.4c0.6,0,1.2-0.1,1.6-0.4v-1.1
						C706.3,412,706.1,411.8,705.9,411.8z"/>
				</g>
				<g>
					<g>
						<path class="st2" d="M710.4,414.5H708c-0.2,0-0.4-0.2-0.4-0.4v-1.8c0-0.2,0.2-0.4,0.4-0.4h2.4c0.2,0,0.4,0.2,0.4,0.4v1.8
							C710.8,414.3,710.6,414.5,710.4,414.5z"/>
					</g>
					<path class="st3" d="M710.3,411.8H708c-0.3,0-0.5,0.2-0.5,0.4v1.1c0.4,0.2,1,0.4,1.6,0.4c0.6,0,1.2-0.1,1.6-0.4v-1.1
						C710.8,412,710.6,411.8,710.3,411.8z"/>
				</g>
				<g>
					<g>
						<path class="st2" d="M714.8,414.5h-2.4c-0.2,0-0.4-0.2-0.4-0.4v-1.8c0-0.2,0.2-0.4,0.4-0.4h2.4c0.2,0,0.4,0.2,0.4,0.4v1.8
							C715.2,414.3,715,414.5,714.8,414.5z"/>
					</g>
					<path class="st3" d="M714.7,411.8h-2.3c-0.3,0-0.5,0.2-0.5,0.4v1.1c0.4,0.2,1,0.4,1.6,0.4c0.6,0,1.2-0.1,1.6-0.4v-1.1
						C715.2,412,715,411.8,714.7,411.8z"/>
				</g>
				<g>
					<g>
						<path class="st2" d="M719.2,414.5h-2.4c-0.2,0-0.4-0.2-0.4-0.4v-1.8c0-0.2,0.2-0.4,0.4-0.4h2.4c0.2,0,0.4,0.2,0.4,0.4v1.8
							C719.6,414.3,719.5,414.5,719.2,414.5z"/>
					</g>
					<path class="st3" d="M719.2,411.8h-2.3c-0.3,0-0.5,0.2-0.5,0.4v1.1c0.4,0.2,1,0.4,1.6,0.4s1.2-0.1,1.6-0.4v-1.1
						C719.6,412,719.4,411.8,719.2,411.8z"/>
				</g>
				<g>
					<g>
						<path class="st2" d="M723.7,414.5h-2.4c-0.2,0-0.4-0.2-0.4-0.4v-1.8c0-0.2,0.2-0.4,0.4-0.4h2.4c0.2,0,0.4,0.2,0.4,0.4v1.8
							C724.1,414.3,723.9,414.5,723.7,414.5z"/>
					</g>
					<path class="st3" d="M723.6,411.8h-2.3c-0.3,0-0.5,0.2-0.5,0.4v1.1c0.4,0.2,1,0.4,1.6,0.4c0.6,0,1.2-0.1,1.6-0.4v-1.1
						C724.1,412,723.9,411.8,723.6,411.8z"/>
				</g>
				<g>
					<g>
						<path class="st2" d="M728.1,414.5h-2.4c-0.2,0-0.4-0.2-0.4-0.4v-1.8c0-0.2,0.2-0.4,0.4-0.4h2.4c0.2,0,0.4,0.2,0.4,0.4v1.8
							C728.5,414.3,728.3,414.5,728.1,414.5z"/>
					</g>
					<path class="st3" d="M728.1,411.8h-2.3c-0.3,0-0.5,0.2-0.5,0.4v1.1c0.4,0.2,1,0.4,1.6,0.4c0.6,0,1.2-0.1,1.6-0.4v-1.1
						C728.5,412,728.3,411.8,728.1,411.8z"/>
				</g>
				<g>
					<g>
						<path class="st2" d="M732.5,414.5h-2.4c-0.2,0-0.4-0.2-0.4-0.4v-1.8c0-0.2,0.2-0.4,0.4-0.4h2.4c0.2,0,0.4,0.2,0.4,0.4v1.8
							C732.9,414.3,732.8,414.5,732.5,414.5z"/>
					</g>
					<path class="st3" d="M732.5,411.8h-2.3c-0.3,0-0.5,0.2-0.5,0.4v1.1c0.4,0.2,1,0.4,1.6,0.4c0.6,0,1.2-0.1,1.6-0.4v-1.1
						C732.9,412,732.7,411.8,732.5,411.8z"/>
				</g>
			</g>
			<g>
				<g>
					<g>
						<path class="st2" d="M681.5,410.8h-2.4c-0.2,0-0.4-0.2-0.4-0.4v-1.8c0-0.2,0.2-0.4,0.4-0.4h2.4c0.2,0,0.4,0.2,0.4,0.4v1.8
							C681.9,410.6,681.7,410.8,681.5,410.8z"/>
					</g>
					<path class="st3" d="M681.5,408.1h-2.3c-0.3,0-0.5,0.2-0.5,0.4v1.1c0.4,0.2,1,0.4,1.6,0.4c0.6,0,1.2-0.1,1.6-0.4v-1.1
						C681.9,408.3,681.7,408.1,681.5,408.1z"/>
				</g>
				<g>
					<g>
						<path class="st2" d="M686,410.8h-2.4c-0.2,0-0.4-0.2-0.4-0.4v-1.8c0-0.2,0.2-0.4,0.4-0.4h2.4c0.2,0,0.4,0.2,0.4,0.4v1.8
							C686.4,410.6,686.2,410.8,686,410.8z"/>
					</g>
					<path class="st3" d="M685.9,408.1h-2.3c-0.3,0-0.5,0.2-0.5,0.4v1.1c0.4,0.2,1,0.4,1.6,0.4c0.6,0,1.2-0.1,1.6-0.4v-1.1
						C686.4,408.3,686.2,408.1,685.9,408.1z"/>
				</g>
				<g>
					<g>
						<path class="st2" d="M690.4,410.8H688c-0.2,0-0.4-0.2-0.4-0.4v-1.8c0-0.2,0.2-0.4,0.4-0.4h2.4c0.2,0,0.4,0.2,0.4,0.4v1.8
							C690.8,410.6,690.6,410.8,690.4,410.8z"/>
					</g>
					<path class="st3" d="M690.3,408.1H688c-0.3,0-0.5,0.2-0.5,0.4v1.1c0.4,0.2,1,0.4,1.6,0.4c0.6,0,1.2-0.1,1.6-0.4v-1.1
						C690.8,408.3,690.6,408.1,690.3,408.1z"/>
				</g>
				<g>
					<g>
						<path class="st2" d="M694.8,410.8h-2.4c-0.2,0-0.4-0.2-0.4-0.4v-1.8c0-0.2,0.2-0.4,0.4-0.4h2.4c0.2,0,0.4,0.2,0.4,0.4v1.8
							C695.2,410.6,695.1,410.8,694.8,410.8z"/>
					</g>
					<path class="st3" d="M694.8,408.1h-2.3c-0.3,0-0.5,0.2-0.5,0.4v1.1c0.4,0.2,1,0.4,1.6,0.4c0.6,0,1.2-0.1,1.6-0.4v-1.1
						C695.2,408.3,695,408.1,694.8,408.1z"/>
				</g>
				<g>
					<g>
						<path class="st2" d="M699.3,410.8h-2.4c-0.2,0-0.4-0.2-0.4-0.4v-1.8c0-0.2,0.2-0.4,0.4-0.4h2.4c0.2,0,0.4,0.2,0.4,0.4v1.8
							C699.7,410.6,699.5,410.8,699.3,410.8z"/>
					</g>
					<path class="st3" d="M699.2,408.1h-2.3c-0.3,0-0.5,0.2-0.5,0.4v1.1c0.4,0.2,1,0.4,1.6,0.4c0.6,0,1.2-0.1,1.6-0.4v-1.1
						C699.7,408.3,699.5,408.1,699.2,408.1z"/>
				</g>
				<g>
					<g>
						<path class="st2" d="M703.7,410.8h-2.4c-0.2,0-0.4-0.2-0.4-0.4v-1.8c0-0.2,0.2-0.4,0.4-0.4h2.4c0.2,0,0.4,0.2,0.4,0.4v1.8
							C704.1,410.6,703.9,410.8,703.7,410.8z"/>
					</g>
					<path class="st3" d="M703.7,408.1h-2.3c-0.3,0-0.5,0.2-0.5,0.4v1.1c0.4,0.2,1,0.4,1.6,0.4c0.6,0,1.2-0.1,1.6-0.4v-1.1
						C704.1,408.3,703.9,408.1,703.7,408.1z"/>
				</g>
				<g>
					<g>
						<path class="st2" d="M708.1,410.8h-2.4c-0.2,0-0.4-0.2-0.4-0.4v-1.8c0-0.2,0.2-0.4,0.4-0.4h2.4c0.2,0,0.4,0.2,0.4,0.4v1.8
							C708.6,410.6,708.4,410.8,708.1,410.8z"/>
					</g>
					<path class="st3" d="M708.1,408.1h-2.3c-0.3,0-0.5,0.2-0.5,0.4v1.1c0.4,0.2,1,0.4,1.6,0.4c0.6,0,1.2-0.1,1.6-0.4v-1.1
						C708.6,408.3,708.3,408.1,708.1,408.1z"/>
				</g>
				<g>
					<g>
						<path class="st2" d="M712.6,410.8h-2.4c-0.2,0-0.4-0.2-0.4-0.4v-1.8c0-0.2,0.2-0.4,0.4-0.4h2.4c0.2,0,0.4,0.2,0.4,0.4v1.8
							C713,410.6,712.8,410.8,712.6,410.8z"/>
					</g>
					<path class="st3" d="M712.5,408.1h-2.3c-0.3,0-0.5,0.2-0.5,0.4v1.1c0.4,0.2,1,0.4,1.6,0.4c0.6,0,1.2-0.1,1.6-0.4v-1.1
						C713,408.3,712.8,408.1,712.5,408.1z"/>
				</g>
				<g>
					<g>
						<path class="st2" d="M717,410.8h-2.4c-0.2,0-0.4-0.2-0.4-0.4v-1.8c0-0.2,0.2-0.4,0.4-0.4h2.4c0.2,0,0.4,0.2,0.4,0.4v1.8
							C717.4,410.6,717.2,410.8,717,410.8z"/>
					</g>
					<path class="st3" d="M717,408.1h-2.3c-0.3,0-0.5,0.2-0.5,0.4v1.1c0.4,0.2,1,0.4,1.6,0.4c0.6,0,1.2-0.1,1.6-0.4v-1.1
						C717.4,408.3,717.2,408.1,717,408.1z"/>
				</g>
				<g>
					<g>
						<path class="st2" d="M721.4,410.8H719c-0.2,0-0.4-0.2-0.4-0.4v-1.8c0-0.2,0.2-0.4,0.4-0.4h2.4c0.2,0,0.4,0.2,0.4,0.4v1.8
							C721.9,410.6,721.7,410.8,721.4,410.8z"/>
					</g>
					<path class="st3" d="M721.4,408.1h-2.3c-0.3,0-0.5,0.2-0.5,0.4v1.1c0.4,0.2,1,0.4,1.6,0.4c0.6,0,1.2-0.1,1.6-0.4v-1.1
						C721.9,408.3,721.7,408.1,721.4,408.1z"/>
				</g>
				<g>
					<g>
						<path class="st2" d="M725.9,410.8h-2.4c-0.2,0-0.4-0.2-0.4-0.4v-1.8c0-0.2,0.2-0.4,0.4-0.4h2.4c0.2,0,0.4,0.2,0.4,0.4v1.8
							C726.3,410.6,726.1,410.8,725.9,410.8z"/>
					</g>
					<path class="st3" d="M725.8,408.1h-2.3c-0.3,0-0.5,0.2-0.5,0.4v1.1c0.4,0.2,1,0.4,1.6,0.4c0.6,0,1.2-0.1,1.6-0.4v-1.1
						C726.3,408.3,726.1,408.1,725.8,408.1z"/>
				</g>
				<g>
					<g>
						<path class="st2" d="M730.3,410.8h-2.4c-0.2,0-0.4-0.2-0.4-0.4v-1.8c0-0.2,0.2-0.4,0.4-0.4h2.4c0.2,0,0.4,0.2,0.4,0.4v1.8
							C730.7,410.6,730.5,410.8,730.3,410.8z"/>
					</g>
					<path class="st3" d="M730.3,408.1H728c-0.3,0-0.5,0.2-0.5,0.4v1.1c0.4,0.2,1,0.4,1.6,0.4c0.6,0,1.2-0.1,1.6-0.4v-1.1
						C730.7,408.3,730.5,408.1,730.3,408.1z"/>
				</g>
			</g>
		</g>
		<g>
			<path class="st0" d="M759.5,424.2h-13.1c-0.4,0-0.7-0.3-0.7-0.7v-17.3c0-0.4,0.3-0.7,0.7-0.7h13.1c0.4,0,0.7,0.3,0.7,0.7v17.3
				C760.2,423.9,759.9,424.2,759.5,424.2z"/>
			<g>
				<path class="st1" d="M749.3,415.3h-0.2c-0.8,0-1.5-0.7-1.5-1.5v-3.9c0-0.8,0.7-1.5,1.5-1.5h0.2c0.8,0,1.5,0.7,1.5,1.5v3.9
					C750.8,414.6,750.1,415.3,749.3,415.3z"/>
				<path class="st1" d="M753,415.3h-0.2c-0.8,0-1.5-0.7-1.5-1.5v-3.9c0-0.8,0.7-1.5,1.5-1.5h0.2c0.8,0,1.5,0.7,1.5,1.5v3.9
					C754.5,414.6,753.8,415.3,753,415.3z"/>
				<path class="st1" d="M756.7,415.3h-0.2c-0.8,0-1.5-0.7-1.5-1.5v-3.9c0-0.8,0.7-1.5,1.5-1.5h0.2c0.8,0,1.5,0.7,1.5,1.5v3.9
					C758.2,414.6,757.6,415.3,756.7,415.3z"/>
			</g>
		</g>
	</g>
</g>
<text transform="matrix(0.9641 0 0 1 688.3643 358.3037)" class="st4 st5 st6">Luke</text>
</svg>
